<?xml version="1.0" standalone="no"?>
<!DOCTYPE svg PUBLIC "-//W3C//DTD SVG 20010904//EN"
 "http://www.w3.org/TR/2001/REC-SVG-20010904/DTD/svg10.dtd">
<svg version="1.0" xmlns="http://www.w3.org/2000/svg"
 width="1500.000000pt" height="1500.000000pt" viewBox="0 0 1500.000000 1500.000000"
 preserveAspectRatio="xMidYMid meet">

<g transform="translate(0.000000,1500.000000) scale(0.100000,-0.100000)"
fill="#000000" stroke="none">
<path d="M0 14796 c0 -189 1 -206 19 -218 19 -13 15 -48 -8 -63 -17 -10 -14
-76 3 -69 7 3 13 12 12 21 0 9 4 18 11 20 8 3 15 -14 19 -48 5 -36 15 -61 31
-77 19 -19 22 -30 17 -58 -4 -21 -2 -34 4 -34 6 0 19 -18 28 -41 15 -32 23
-39 39 -35 11 2 37 8 57 11 44 8 47 17 13 39 -60 39 -8 83 60 50 35 -16 37
-16 57 4 20 19 23 20 50 6 27 -14 31 -13 58 8 16 13 28 28 26 33 -2 6 -6 19
-9 30 -4 11 -3 25 1 30 11 15 73 57 78 53 2 -3 7 -19 10 -36 6 -28 3 -33 -30
-53 -20 -11 -36 -24 -36 -28 0 -4 23 -18 51 -30 57 -26 56 -22 18 -150 -26
-85 -24 -111 9 -151 l29 -34 6 26 c4 14 16 47 27 72 l20 47 25 -17 c15 -10 41
-46 59 -82 l32 -64 33 27 32 28 22 -20 c17 -15 31 -19 60 -16 25 4 46 0 63
-12 20 -13 28 -14 40 -4 21 17 18 26 -26 78 -22 26 -40 53 -40 60 0 7 -14 30
-32 51 -28 33 -37 37 -65 33 -28 -5 -37 0 -77 41 -25 25 -46 55 -46 65 0 11
-8 26 -18 33 -41 30 -63 70 -56 105 5 25 3 33 -9 33 -32 0 -66 40 -73 85 -3
26 -12 45 -19 45 -21 0 -89 60 -101 90 -7 15 -22 38 -33 49 -31 31 -38 71 -15
88 16 12 22 9 59 -34 77 -92 83 -96 123 -90 20 4 46 8 56 9 13 2 22 -6 29 -27
6 -16 17 -35 25 -41 13 -10 10 -14 -21 -29 -20 -9 -37 -21 -37 -26 0 -4 11
-19 25 -33 14 -14 25 -34 25 -45 0 -14 11 -26 33 -35 41 -19 67 -40 67 -55 0
-13 26 -56 50 -82 8 -10 23 -28 32 -42 10 -14 33 -31 52 -38 30 -11 36 -18 43
-58 8 -44 10 -46 45 -49 23 -2 48 4 65 15 37 23 43 32 43 67 l0 29 -80 -7 -80
-6 0 25 c0 21 11 75 26 133 5 19 101 -32 109 -59 9 -27 19 -16 39 48 9 28 24
54 32 57 12 5 11 9 -7 27 -18 18 -20 28 -14 72 4 29 14 59 22 69 18 21 59 31
79 20 14 -8 12 -13 -9 -38 -24 -28 -24 -29 -10 -78 12 -39 12 -58 4 -90 -7
-23 -13 -66 -14 -96 -2 -49 0 -55 19 -58 12 -2 24 -12 27 -24 8 -28 25 -14 20
16 -6 31 13 66 37 66 28 0 31 13 18 69 -11 48 -10 53 12 76 13 14 29 25 35 25
6 0 36 -23 68 -50 l56 -51 16 30 c10 20 11 32 5 36 -6 4 -22 24 -36 46 -13 21
-41 54 -61 72 -36 33 -37 34 -65 18 -41 -24 -64 -6 -60 49 2 37 -3 48 -48 102
-27 33 -50 64 -50 69 0 5 -10 9 -22 9 -13 1 -34 7 -47 14 -24 13 -24 14 -3 25
11 6 36 11 55 11 36 0 51 17 41 45 -7 16 -31 20 -105 16 -44 -2 -47 -1 -57 29
-13 37 -32 31 -32 -9 0 -47 -21 -56 -88 -41 -31 8 -91 15 -132 16 -96 4 -164
18 -200 44 -26 19 -44 20 -251 20 -214 0 -221 -1 -206 -18 13 -14 14 -21 5
-30 -25 -25 -55 -2 -42 33 5 13 -6 15 -70 15 l-76 0 0 -204z m249 99 c16 -8
31 -26 35 -39 3 -14 20 -41 36 -59 37 -42 60 -128 40 -152 -22 -26 -81 -19
-116 14 -29 28 -36 29 -87 24 -54 -5 -56 -5 -62 20 -9 33 -2 44 43 65 34 16
37 21 37 59 0 26 7 48 19 62 23 25 20 25 55 6z m-129 -45 c-20 -12 -33 -1 -19
16 9 11 15 12 23 4 8 -8 7 -13 -4 -20z m562 -55 c0 -5 -5 -11 -11 -13 -6 -2
-11 4 -11 13 0 9 5 15 11 13 6 -2 11 -8 11 -13z m176 -129 c2 -21 -1 -36 -8
-36 -16 0 -91 50 -87 58 2 4 7 14 10 24 5 14 10 15 44 3 33 -11 38 -17 41 -49z
m39 -42 c-3 -3 -12 -4 -19 -1 -8 3 -5 6 6 6 11 1 17 -2 13 -5z m-505 -27 c14
-22 4 -49 -29 -74 l-32 -25 -21 34 c-24 40 -25 52 -3 73 18 19 71 14 85 -8z
m473 -36 c22 -11 48 -22 59 -26 15 -4 17 -11 11 -43 -4 -20 -11 -43 -17 -49
-28 -34 -118 5 -118 51 0 12 -7 32 -16 44 -30 44 12 56 81 23z m160 -42 c10
-15 -1 -23 -20 -15 -9 3 -13 10 -10 16 8 13 22 13 30 -1z m-785 -104 c0 -46
-22 -62 -55 -41 -32 21 -32 44 2 88 l28 35 12 -25 c7 -13 13 -39 13 -57z"/>
<path d="M1396 14975 c9 -14 22 -25 28 -25 7 0 22 -9 34 -20 l22 -21 0 30 c0
16 3 36 6 45 5 13 -3 16 -50 16 l-56 0 16 -25z"/>
<path d="M1617 14993 c-4 -3 -7 -14 -7 -24 0 -10 -13 -27 -30 -39 -16 -12 -30
-28 -30 -36 0 -20 -40 -34 -62 -22 -13 6 -18 5 -18 -6 0 -20 93 -41 118 -27 9
5 26 5 38 1 18 -7 26 -4 38 16 9 13 24 24 34 24 17 0 42 18 42 30 0 3 -18 25
-39 48 -36 39 -68 52 -84 35z"/>
<path d="M1798 14993 c-14 -3 -18 -15 -18 -49 0 -25 -5 -55 -11 -66 -10 -18
-8 -24 15 -41 14 -10 26 -24 26 -31 0 -7 14 -25 30 -41 21 -20 30 -38 30 -61
0 -30 -3 -33 -52 -44 -63 -15 -74 -28 -49 -55 10 -11 24 -30 30 -43 11 -21 14
-22 39 -8 15 8 44 22 65 32 21 9 42 25 48 35 9 18 49 26 62 13 3 -4 -1 -17
-10 -31 -12 -18 -13 -29 -5 -46 6 -12 16 -40 23 -62 6 -22 17 -47 25 -55 7 -8
17 -27 23 -42 10 -25 36 -45 93 -68 15 -7 30 -21 34 -33 4 -12 19 -36 34 -54
15 -17 30 -37 33 -45 4 -9 16 -1 41 25 28 31 43 39 76 42 53 4 58 10 23 31
-15 10 -38 27 -50 37 -20 18 -27 19 -60 8 -66 -22 -143 24 -143 84 0 18 -5 46
-11 64 -15 44 2 64 47 55 40 -7 48 15 12 31 -14 6 -24 21 -26 38 -3 25 -6 27
-53 27 -51 0 -56 4 -116 79 -19 23 -20 23 -45 7 -20 -13 -31 -14 -52 -6 -32
12 -28 23 13 40 24 9 31 20 36 53 8 44 22 62 40 47 17 -14 97 -39 110 -34 8 3
16 -11 24 -41 9 -37 21 -53 66 -88 30 -23 55 -47 55 -53 0 -6 7 -17 15 -24 13
-10 19 -8 36 14 17 22 28 26 62 24 l41 -3 23 65 c12 36 24 95 26 133 3 44 10
73 20 85 23 25 22 29 -14 47 -23 12 -50 15 -112 11 -73 -4 -83 -7 -100 -30
-10 -14 -25 -26 -32 -26 -8 0 -25 -12 -39 -27 -21 -22 -26 -24 -31 -11 -4 9
-26 23 -49 32 -24 9 -53 28 -66 41 -22 23 -30 25 -119 24 -53 -1 -104 -3 -113
-6z m608 -155 c-3 -13 -6 -29 -6 -35 0 -7 -4 -13 -10 -13 -5 0 -10 16 -10 35
0 26 4 35 16 35 12 0 15 -6 10 -22z"/>
<path d="M2890 14981 c0 -11 6 -26 13 -33 24 -24 37 -56 37 -93 0 -28 5 -38
20 -42 24 -6 25 -16 6 -32 -12 -10 -17 -8 -26 8 -6 12 -19 21 -29 21 -11 0
-29 11 -42 24 -17 17 -28 22 -39 16 -9 -5 -39 -12 -67 -16 -46 -6 -52 -4 -71
20 -16 21 -26 25 -46 20 -32 -8 -33 -10 -52 -79 -22 -86 6 -121 58 -72 21 19
29 21 51 12 35 -14 77 -55 77 -74 0 -14 1 -14 10 -1 5 8 10 29 10 47 0 47 34
75 79 67 20 -4 43 -14 51 -24 8 -10 25 -23 36 -28 12 -6 24 -25 28 -43 3 -19
13 -33 25 -36 12 -3 23 -17 26 -34 4 -16 10 -31 15 -34 5 -3 6 -20 3 -39 -3
-19 -1 -36 6 -40 8 -5 11 12 13 53 0 34 1 67 2 74 1 6 -9 13 -21 15 -18 3 -23
10 -23 31 0 30 -16 56 -40 64 -20 6 31 27 66 27 21 0 29 -8 41 -40 9 -22 20
-40 24 -40 15 0 21 67 9 91 -11 19 -10 24 6 36 10 7 37 13 59 13 29 0 47 6 60
20 15 16 15 20 3 20 -8 0 -35 13 -59 30 -75 51 -129 39 -180 -39 -18 -29 -39
-21 -39 14 0 13 -5 27 -10 30 -7 4 -4 19 9 40 18 32 18 34 2 49 -10 9 -35 16
-59 16 -35 0 -42 -3 -42 -19z"/>
<path d="M3275 14980 c22 -14 31 -16 37 -7 14 22 8 27 -29 27 l-38 0 30 -20z"/>
<path d="M3730 14990 c0 -15 23 -60 30 -60 7 0 30 45 30 60 0 6 -13 10 -30 10
-16 0 -30 -4 -30 -10z"/>
<path d="M3856 14991 c-9 -13 4 -61 15 -61 13 0 11 -27 -2 -48 -10 -15 -7 -23
15 -45 14 -14 26 -35 26 -45 0 -11 6 -25 14 -31 18 -15 40 11 31 38 -7 24 24
44 62 39 37 -4 38 13 3 37 -17 11 -33 31 -36 45 -12 59 -27 75 -76 78 -25 2
-49 -2 -52 -7z"/>
<path d="M4436 14974 c-4 -14 -4 -34 -1 -43 6 -19 -10 -37 -49 -56 -16 -9 -20
-18 -18 -45 3 -27 42 -102 78 -148 9 -12 44 13 44 31 0 43 12 66 39 75 23 8
33 6 60 -15 17 -14 38 -22 46 -19 25 9 16 76 -10 76 -7 0 -15 7 -19 15 -3 9
-22 25 -42 37 -35 21 -36 23 -32 70 l5 48 -47 0 c-43 0 -48 -3 -54 -26z"/>
<path d="M6370 14927 c0 -80 9 -97 51 -97 40 0 44 16 15 51 -30 35 -33 65 -10
97 15 21 14 22 -20 22 l-36 0 0 -73z"/>
<path d="M6547 14980 c11 -13 19 -16 24 -9 4 6 13 15 20 20 9 6 2 9 -23 9 -37
0 -37 -1 -21 -20z"/>
<path d="M6706 14991 c-3 -5 -8 -39 -12 -77 -5 -64 -4 -70 16 -82 18 -11 25
-11 46 2 20 14 22 20 13 43 -13 35 -4 69 21 83 38 21 24 40 -29 40 -28 0 -52
-4 -55 -9z"/>
<path d="M4855 14971 c-16 -11 -41 -28 -54 -39 l-24 -19 36 -64 c35 -62 36
-62 42 -33 15 74 28 110 46 127 19 18 16 47 -5 47 -6 0 -24 -9 -41 -19z"/>
<path d="M4210 14970 c0 -5 5 -10 11 -10 5 0 7 5 4 10 -3 6 -8 10 -11 10 -2 0
-4 -4 -4 -10z"/>
<path d="M5743 14964 c-9 -25 13 -40 26 -16 10 19 6 32 -11 32 -5 0 -11 -7
-15 -16z"/>
<path d="M8858 14963 c12 -2 30 -2 40 0 9 3 -1 5 -23 4 -22 0 -30 -2 -17 -4z"/>
<path d="M7686 14944 c-7 -19 3 -64 15 -64 5 0 9 18 9 40 0 40 -13 53 -24 24z"/>
<path d="M9132 14920 c0 -14 2 -19 5 -12 2 6 2 18 0 25 -3 6 -5 1 -5 -13z"/>
<path d="M8782 14909 c-12 -33 -3 -71 17 -67 11 2 16 14 16 42 0 44 -21 60
-33 25z"/>
<path d="M2542 14908 c5 -15 28 -18 29 -3 0 6 -7 12 -17 13 -10 3 -15 -1 -12
-10z"/>
<path d="M4265 14910 c4 -6 11 -8 16 -5 14 9 11 15 -7 15 -8 0 -12 -5 -9 -10z"/>
<path d="M11065 14910 c3 -5 8 -10 11 -10 2 0 4 5 4 10 0 6 -5 10 -11 10 -5 0
-7 -4 -4 -10z"/>
<path d="M13633 14904 c-3 -8 -16 -20 -29 -25 -18 -6 -24 -16 -24 -39 0 -16 4
-30 8 -30 11 0 37 30 45 53 7 19 29 22 58 7 16 -9 19 -7 19 14 0 36 -64 53
-77 20z"/>
<path d="M1337 14904 c-11 -12 -7 -57 7 -84 l14 -25 13 28 c19 41 -9 106 -34
81z"/>
<path d="M10896 14879 c-3 -17 -2 -38 4 -47 5 -10 10 -12 10 -7 0 6 4 27 9 48
7 28 6 37 -4 37 -7 0 -15 -14 -19 -31z"/>
<path d="M3323 14884 c-10 -26 11 -49 46 -52 25 -3 31 0 31 17 0 42 -63 70
-77 35z"/>
<path d="M10272 14860 c0 -14 2 -19 5 -12 2 6 2 18 0 25 -3 6 -5 1 -5 -13z"/>
<path d="M11910 14860 c-13 -9 -13 -11 0 -20 21 -14 46 -12 59 4 9 11 7 15
-11 20 -30 8 -30 7 -48 -4z"/>
<path d="M5046 14812 c-15 -18 -15 -21 5 -45 l20 -27 26 30 c20 25 23 33 13
45 -17 20 -43 19 -64 -3z"/>
<path d="M1687 14803 c-12 -11 -7 -50 7 -62 19 -16 27 0 20 38 -6 30 -14 37
-27 24z"/>
<path d="M3420 14800 c-12 -8 -11 -10 7 -10 13 0 28 -9 35 -19 12 -19 12 -19
26 1 12 17 13 22 1 29 -18 11 -50 11 -69 -1z"/>
<path d="M3724 14797 c-12 -6 -34 -21 -49 -31 -15 -11 -42 -19 -61 -19 -19 1
-37 -3 -40 -8 -3 -5 6 -9 21 -9 39 0 48 -37 20 -75 -34 -46 -37 -74 -12 -105
12 -15 27 -35 33 -45 9 -16 13 -11 30 36 l20 54 46 -3 c56 -3 90 20 65 46 -8
8 -36 17 -61 19 -57 7 -79 28 -43 42 16 6 27 20 32 39 3 18 14 32 26 35 21 6
27 37 7 37 -7 0 -23 -6 -34 -13z"/>
<path d="M5910 14785 c0 -8 -9 -19 -20 -25 -23 -12 -27 -40 -6 -40 8 0 26 4
40 10 20 7 26 16 26 40 0 23 -4 30 -20 30 -11 0 -20 -7 -20 -15z"/>
<path d="M13526 14764 c-9 -34 3 -99 16 -86 5 5 13 25 17 44 13 55 -20 96 -33
42z"/>
<path d="M9356 14754 c-9 -22 5 -36 24 -24 13 8 13 11 -1 25 -15 15 -17 15
-23 -1z"/>
<path d="M13115 14730 c-10 -22 -22 -40 -26 -40 -4 0 4 -21 18 -46 24 -43 27
-45 40 -28 21 28 20 120 -1 142 -10 10 -16 5 -31 -28z"/>
<path d="M11851 14746 c-10 -12 -8 -17 7 -25 16 -8 21 -7 26 5 12 31 -12 45
-33 20z"/>
<path d="M4660 14743 c0 -5 5 -15 10 -23 8 -12 10 -11 10 8 0 12 -4 22 -10 22
-5 0 -10 -3 -10 -7z"/>
<path d="M1413 14685 c0 -27 2 -38 4 -22 2 15 2 37 0 50 -2 12 -4 0 -4 -28z"/>
<path d="M6996 14695 c-18 -13 -18 -15 -2 -21 21 -8 44 12 31 25 -6 6 -17 4
-29 -4z"/>
<path d="M5290 14674 c-14 -35 -13 -49 5 -64 12 -10 16 -9 21 6 3 11 10 29 15
42 5 13 7 28 4 33 -11 18 -36 9 -45 -17z"/>
<path d="M596 14654 c-14 -37 -7 -54 24 -54 35 0 41 27 12 53 -23 21 -28 21
-36 1z"/>
<path d="M4010 14635 c-8 -9 -8 -15 -2 -15 6 0 14 -9 17 -20 7 -21 30 -27 40
-9 4 5 4 21 1 35 -7 27 -37 32 -56 9z"/>
<path d="M4714 14604 c-16 -39 -10 -99 11 -108 7 -2 23 6 36 20 15 16 34 24
55 24 20 0 34 6 38 16 8 22 9 20 -26 53 -23 22 -43 31 -66 31 -28 0 -35 -5
-48 -36z"/>
<path d="M7689 14612 c-5 -15 -11 -32 -13 -38 -2 -6 4 -16 14 -22 20 -12 20
-12 34 49 8 39 -21 48 -35 11z"/>
<path d="M3180 14603 c0 -17 5 -35 11 -38 18 -12 20 1 5 36 l-15 34 -1 -32z"/>
<path d="M14900 14620 c0 -5 4 -10 9 -10 6 0 13 5 16 10 3 6 -1 10 -9 10 -9 0
-16 -4 -16 -10z"/>
<path d="M2319 14584 c-10 -13 -8 -19 13 -37 14 -12 31 -32 37 -44 14 -27 36
-30 45 -7 11 28 6 84 -6 88 -45 14 -77 14 -89 0z"/>
<path d="M11755 14581 c-3 -5 -1 -12 5 -16 5 -3 10 1 10 9 0 18 -6 21 -15 7z"/>
<path d="M8440 14564 c0 -8 5 -12 10 -9 6 4 8 11 5 16 -9 14 -15 11 -15 -7z"/>
<path d="M12135 14570 c-3 -5 -4 -10 -1 -10 2 0 11 -3 20 -6 11 -4 16 -1 16
10 0 18 -25 22 -35 6z"/>
<path d="M12040 14538 c0 -17 1 -29 3 -27 2 2 11 16 20 32 17 26 17 27 -3 27
-16 0 -20 -7 -20 -32z"/>
<path d="M3811 14510 c0 -29 1 -32 10 -17 7 11 7 23 0 35 -9 14 -10 11 -10
-18z"/>
<path d="M2532 14518 c-6 -7 -12 -26 -14 -43 -3 -32 -38 -50 -38 -21 0 11 -9
16 -30 16 -18 0 -30 -5 -30 -13 0 -16 61 -77 77 -77 6 0 23 -14 37 -31 l26
-30 9 23 c5 13 12 37 15 55 11 47 28 58 64 39 24 -12 32 -13 47 -2 16 12 16
14 1 45 -9 17 -28 36 -42 41 -36 14 -110 12 -122 -2z"/>
<path d="M4295 14465 c-23 -26 -53 -47 -70 -51 -16 -3 -34 -9 -38 -11 -12 -7
23 -29 61 -38 29 -6 32 -5 32 18 0 43 26 60 84 54 28 -2 59 -8 69 -12 13 -5
17 -2 17 14 0 12 -6 21 -13 21 -7 0 -28 11 -47 25 -19 14 -39 25 -44 25 -6 -1
-29 -21 -51 -45z"/>
<path d="M1627 14474 c-10 -11 -9 -52 3 -74 9 -16 15 -17 40 -8 31 10 51 51
34 68 -13 12 -69 22 -77 14z"/>
<path d="M3295 14450 c3 -5 8 -10 11 -10 2 0 4 5 4 10 0 6 -5 10 -11 10 -5 0
-7 -4 -4 -10z"/>
<path d="M4887 14428 c22 -46 23 -46 23 -5 0 30 -4 37 -19 37 -19 0 -19 -2 -4
-32z"/>
<path d="M5126 14438 c-15 -74 -15 -106 -1 -118 13 -10 18 -6 31 26 9 22 21
42 27 45 5 4 7 14 4 23 -3 8 -2 18 3 21 21 13 8 25 -25 25 -28 0 -36 -4 -39
-22z"/>
<path d="M4073 14416 c-21 -14 -34 -32 -39 -53 -9 -47 7 -65 21 -23 8 24 20
37 42 44 28 10 30 13 20 32 l-12 20 -32 -20z"/>
<path d="M3864 14407 c-4 -10 -2 -23 3 -28 14 -14 24 13 13 32 -7 11 -10 10
-16 -4z"/>
<path d="M5950 14396 c0 -9 40 -13 46 -5 3 5 -6 9 -20 9 -14 0 -26 -2 -26 -4z"/>
<path d="M3381 14331 c-33 -41 -62 -106 -56 -124 2 -6 6 -24 9 -39 13 -57 56
-21 56 46 0 50 33 71 100 62 46 -6 50 -5 50 14 0 28 -31 52 -85 65 l-46 12
-28 -36z"/>
<path d="M2720 14351 c0 -6 5 -13 10 -16 6 -3 10 1 10 9 0 9 -4 16 -10 16 -5
0 -10 -4 -10 -9z"/>
<path d="M1404 14295 c-6 -15 2 -35 14 -35 4 0 13 4 21 9 12 8 12 12 2 25 -17
20 -30 20 -37 1z"/>
<path d="M3860 14283 c0 -5 5 -15 10 -23 8 -12 10 -11 10 8 0 12 -4 22 -10 22
-5 0 -10 -3 -10 -7z"/>
<path d="M1511 14248 c-8 -20 -5 -25 23 -36 20 -8 36 -25 43 -43 13 -33 45
-39 79 -15 18 14 18 15 -9 25 -16 6 -33 11 -38 11 -5 0 -9 4 -9 10 0 11 -37
47 -63 61 -14 8 -19 5 -26 -13z"/>
<path d="M2437 14250 c-3 -8 -8 -26 -11 -40 -3 -14 -19 -40 -36 -58 -16 -18
-30 -38 -30 -44 0 -6 19 -28 42 -49 43 -39 58 -38 58 6 0 48 59 87 74 50 6
-17 36 -21 36 -5 0 6 -7 13 -15 16 -8 4 -15 14 -15 24 0 21 -31 50 -54 50 -10
0 -23 14 -31 33 -9 21 -15 27 -18 17z"/>
<path d="M9050 14245 c-10 -13 -9 -19 6 -36 17 -19 19 -19 25 -2 7 20 0 53
-11 53 -4 0 -13 -7 -20 -15z"/>
<path d="M441 14234 c0 -11 3 -14 6 -6 3 7 2 16 -1 19 -3 4 -6 -2 -5 -13z"/>
<path d="M2610 14235 c0 -8 4 -15 10 -15 5 0 7 7 4 15 -4 8 -8 15 -10 15 -2 0
-4 -7 -4 -15z"/>
<path d="M4040 14228 c0 -10 6 -18 14 -18 7 0 19 -7 26 -15 16 -19 30 -10 30
19 0 20 -6 25 -35 28 -29 3 -35 1 -35 -14z"/>
<path d="M7463 14224 c-3 -8 -1 -20 6 -27 8 -8 11 -4 11 16 0 30 -7 35 -17 11z"/>
<path d="M4894 14218 c-5 -8 -22 -22 -39 -30 -17 -8 -28 -20 -26 -29 2 -8 6
-47 9 -87 4 -68 6 -72 22 -57 9 8 24 15 34 15 25 0 16 34 -11 38 -25 4 -36 35
-19 58 7 9 35 22 62 29 49 13 49 13 21 24 -15 6 -31 21 -36 33 -7 18 -9 19
-17 6z"/>
<path d="M0 14172 c0 -21 7 -32 25 -40 14 -6 25 -8 25 -3 0 5 3 16 6 25 4 10
-5 20 -25 31 l-31 16 0 -29z"/>
<path d="M2670 14170 c0 -5 5 -10 11 -10 5 0 7 5 4 10 -3 6 -8 10 -11 10 -2 0
-4 -4 -4 -10z"/>
<path d="M320 14136 c0 -42 -14 -54 -70 -58 -38 -2 -47 -7 -58 -31 -7 -15 -22
-33 -32 -39 -18 -11 -17 -13 7 -42 25 -30 25 -30 5 -39 -27 -12 -30 -21 -23
-92 6 -63 14 -64 26 -5 12 62 15 66 55 84 23 10 42 26 45 39 18 63 28 77 54
77 14 0 33 -4 41 -10 9 -5 19 -5 27 2 23 19 14 56 -22 92 -19 20 -35 40 -35
46 0 5 -4 10 -10 10 -5 0 -10 -15 -10 -34z"/>
<path d="M2952 14145 c0 -16 2 -22 5 -12 2 9 2 23 0 30 -3 6 -5 -1 -5 -18z"/>
<path d="M3732 14128 c-7 -7 -12 -27 -12 -44 0 -42 25 -48 63 -17 18 14 42 23
63 23 50 0 44 25 -10 39 -58 14 -89 14 -104 -1z"/>
<path d="M1460 14110 c0 -5 5 -10 10 -10 6 0 10 5 10 10 0 6 -4 10 -10 10 -5
0 -10 -4 -10 -10z"/>
<path d="M2007 14084 c-40 -37 -60 -41 -109 -20 -18 7 -53 19 -78 25 -25 7
-53 14 -63 18 -15 5 -16 2 -8 -20 11 -28 3 -64 -24 -116 -19 -38 -16 -43 41
-59 56 -16 83 -49 93 -111 8 -50 21 -80 21 -48 0 9 11 24 25 33 19 13 31 14
54 6 23 -8 32 -7 42 4 16 19 3 61 -21 69 -21 7 -38 65 -25 85 10 16 76 5 117
-20 35 -21 48 -18 48 10 0 11 11 22 30 29 66 22 42 84 -48 123 l-59 25 -36
-33z m-127 -84 c0 -5 -10 -10 -22 -10 -19 0 -20 2 -8 10 19 13 30 13 30 0z"/>
<path d="M17 14086 c-24 -19 -24 -123 1 -142 25 -20 30 -18 52 26 11 21 29 44
40 50 32 17 23 38 -26 60 -26 11 -47 20 -48 20 0 0 -9 -7 -19 -14z"/>
<path d="M13530 14032 c0 -47 3 -62 13 -59 14 5 12 80 -3 106 -7 11 -9 -3 -10
-47z"/>
<path d="M4020 14045 c-5 -14 -21 -30 -35 -35 -22 -8 -25 -16 -25 -54 0 -50
18 -98 34 -93 6 2 13 28 16 58 7 70 13 79 61 79 36 0 39 2 39 29 0 24 -5 29
-31 35 -46 9 -49 8 -59 -19z"/>
<path d="M3240 14022 c0 -6 -11 -12 -25 -14 -23 -3 -35 -16 -17 -19 4 -1 17
-5 28 -10 14 -5 28 -3 39 4 15 12 15 14 -4 31 -12 11 -21 14 -21 8z"/>
<path d="M1635 14010 c-4 -6 -3 -16 3 -22 13 -13 23 4 13 21 -7 10 -10 10 -16
1z"/>
<path d="M1165 14000 c-3 -5 1 -20 9 -32 16 -22 16 -22 16 10 0 31 -12 42 -25
22z"/>
<path d="M2489 14008 c-6 -19 -2 -190 5 -212 8 -27 10 -28 23 -11 8 12 11 31
7 52 -4 20 -2 39 5 47 15 18 75 31 124 27 31 -2 37 0 37 18 0 24 -17 36 -46
33 -12 -2 -49 8 -83 22 -58 25 -70 29 -72 24z"/>
<path d="M4784 13965 c-3 -20 -4 -38 -1 -41 12 -12 27 8 27 36 0 15 6 31 13
33 6 3 2 6 -10 6 -18 1 -23 -6 -29 -34z"/>
<path d="M1435 13903 c-33 -8 -45 -24 -45 -58 0 -50 22 -62 65 -35 49 30 62
56 39 81 -17 19 -23 21 -59 12z"/>
<path d="M924 13879 c-10 -11 -32 -28 -47 -36 l-29 -15 21 -22 c12 -12 21 -28
21 -34 0 -19 28 -14 34 6 3 9 20 32 36 51 17 18 30 41 28 50 -5 24 -42 25 -64
0z"/>
<path d="M4325 13882 c-8 -22 -6 -62 4 -62 5 0 11 9 14 20 3 11 17 24 31 30
34 13 33 17 -9 22 -23 3 -36 -1 -40 -10z"/>
<path d="M1241 13874 c0 -11 3 -14 6 -6 3 7 2 16 -1 19 -3 4 -6 -2 -5 -13z"/>
<path d="M3054 13870 c-61 -31 -88 -98 -62 -155 18 -41 36 -29 58 39 12 37 13
38 50 32 21 -3 50 -2 64 4 29 11 34 35 11 44 -8 3 -20 17 -27 31 -14 31 -39
32 -94 5z"/>
<path d="M5237 13884 c-4 -4 -4 -10 -1 -15 6 -10 34 0 34 12 0 10 -24 12 -33
3z"/>
<path d="M577 13861 c-25 -11 -46 -30 -61 -58 -26 -45 -23 -54 21 -67 19 -6
25 -2 35 21 22 52 36 62 70 52 38 -10 65 5 47 27 -6 8 -18 14 -27 14 -8 0 -23
6 -31 14 -14 11 -22 11 -54 -3z"/>
<path d="M2136 13826 c-8 -20 -21 -36 -28 -36 -7 0 -19 -4 -27 -9 -17 -11 -5
-51 16 -51 17 0 123 77 123 90 0 6 -11 13 -62 38 -4 2 -14 -13 -22 -32z"/>
<path d="M5177 13801 c-4 -17 -14 -30 -26 -34 -28 -7 -43 -50 -30 -84 10 -27
11 -27 25 -9 8 11 14 35 14 53 0 21 5 33 14 33 13 0 26 28 26 58 0 24 -18 12
-23 -17z"/>
<path d="M17 13786 c-12 -9 -17 -27 -17 -63 l0 -50 55 15 c44 12 55 19 55 36
0 26 -8 37 -42 59 -32 20 -28 20 -51 3z"/>
<path d="M331 13739 c-18 -11 -35 -28 -38 -39 -8 -31 -80 -72 -113 -65 -19 4
-40 -1 -66 -14 -21 -12 -46 -21 -55 -21 -8 0 -25 -10 -37 -23 -17 -18 -22 -36
-22 -79 0 -49 3 -56 22 -61 32 -9 44 6 58 74 12 55 15 60 34 53 12 -4 35 -7
53 -7 29 -1 32 -4 38 -38 4 -24 20 -52 42 -75 31 -33 36 -36 45 -21 5 9 14 17
19 17 6 0 8 -4 4 -9 -3 -5 0 -13 6 -16 21 -13 21 4 0 34 -30 42 -39 206 -12
221 10 5 27 7 38 4 21 -6 83 20 83 35 0 10 -44 51 -56 51 -5 0 -24 -9 -43 -21z"/>
<path d="M1060 13715 c0 -8 5 -15 10 -15 6 0 10 7 10 15 0 8 -4 15 -10 15 -5
0 -10 -7 -10 -15z"/>
<path d="M2320 13706 c0 -11 9 -16 26 -16 31 0 28 23 -4 28 -15 2 -22 -2 -22
-12z"/>
<path d="M2262 13668 c-11 -15 -4 -78 9 -78 5 0 9 8 9 17 0 9 7 24 16 34 17
19 12 39 -10 39 -8 0 -18 -6 -24 -12z"/>
<path d="M3289 13623 c-57 -5 -119 -55 -119 -96 0 -14 -4 -29 -10 -32 -10 -6
-3 -58 12 -88 18 -34 38 0 38 62 0 86 12 97 103 94 57 -2 78 1 87 12 7 9 11
17 9 18 -26 19 -60 37 -66 35 -4 -1 -29 -3 -54 -5z"/>
<path d="M550 13591 c0 -5 -16 -19 -36 -31 -42 -24 -36 -38 18 -42 50 -3 61 9
46 50 -12 30 -28 43 -28 23z"/>
<path d="M1490 13559 c-11 -24 -25 -51 -32 -61 -9 -13 -9 -20 1 -31 10 -13 15
-12 37 9 13 14 28 23 33 19 14 -8 108 15 121 30 9 11 3 19 -28 40 -22 14 -55
28 -75 32 -35 5 -37 4 -57 -38z"/>
<path d="M2720 13585 c0 -8 4 -15 9 -15 5 0 11 7 15 15 3 9 0 15 -9 15 -8 0
-15 -7 -15 -15z"/>
<path d="M1344 13546 c-4 -10 -2 -22 4 -28 8 -8 13 -7 18 6 4 10 2 22 -4 28
-8 8 -13 7 -18 -6z"/>
<path d="M800 13503 c-17 -27 -29 -57 -28 -68 4 -29 44 -31 86 -3 20 14 45 27
55 31 9 3 17 11 17 16 0 14 -69 71 -85 71 -8 0 -28 -21 -45 -47z"/>
<path d="M2660 13530 c0 -23 10 -26 28 -8 18 18 15 28 -8 28 -13 0 -20 -7 -20
-20z"/>
<path d="M3580 13385 c-23 -27 5 -46 66 -43 61 3 70 19 24 43 -37 19 -74 19
-90 0z"/>
<path d="M0 13349 l0 -46 57 -6 c32 -3 59 -4 61 -2 2 2 -1 13 -8 24 -7 14 -21
21 -40 21 -19 0 -35 9 -49 28 l-20 27 -1 -46z"/>
<path d="M300 13375 c0 -21 29 -40 42 -27 13 13 4 28 -22 35 -12 3 -20 0 -20
-8z"/>
<path d="M3516 13324 c-11 -27 -7 -79 8 -99 13 -18 14 -18 24 1 13 25 3 114
-13 114 -7 0 -16 -7 -19 -16z"/>
<path d="M1280 13305 c-13 -14 -29 -25 -36 -25 -7 0 -27 -21 -44 -46 -37 -55
-32 -84 17 -115 35 -22 35 -23 47 52 8 47 31 67 81 71 46 4 56 24 31 63 -22
33 -65 33 -96 0z"/>
<path d="M126 13271 c-4 -5 -2 -21 4 -36 17 -44 12 -106 -9 -129 -19 -21 -19
-21 19 -65 37 -43 38 -43 87 -36 69 9 84 20 57 43 -62 52 -69 108 -19 158 38
38 41 44 23 62 -14 14 -154 17 -162 3z"/>
<path d="M412 13261 c-10 -6 -7 -12 13 -25 26 -17 27 -17 23 5 -3 25 -17 33
-36 20z"/>
<path d="M318 13193 c7 -3 16 -2 19 1 4 3 -2 6 -13 5 -11 0 -14 -3 -6 -6z"/>
<path d="M764 13155 c-16 -10 -20 -22 -16 -40 6 -33 27 -42 50 -22 9 8 27 18
40 21 30 10 28 34 -4 46 -34 13 -46 13 -70 -5z"/>
<path d="M3004 13148 c-12 -31 -6 -90 9 -85 15 4 21 71 9 92 -7 14 -10 12 -18
-7z"/>
<path d="M572 13033 c-12 -22 -28 -45 -36 -52 -24 -20 -1 -41 44 -41 26 0 48
8 67 23 15 13 36 26 46 30 23 8 22 44 -2 56 -10 6 -37 13 -59 17 -39 6 -41 5
-60 -33z"/>
<path d="M1556 12997 c-31 -84 -31 -96 0 -107 27 -11 43 -2 44 25 0 19 45 39
81 36 30 -2 37 1 42 19 3 12 1 32 -4 44 -9 19 -19 22 -79 23 l-68 1 -16 -41z"/>
<path d="M393 12997 c-45 -22 -56 -49 -26 -65 11 -7 30 -3 62 11 58 25 55 21
36 51 -20 30 -17 30 -72 3z"/>
<path d="M707 12935 c-14 -19 -15 -29 -7 -45 14 -25 32 -25 55 0 17 18 17 21
1 45 -20 31 -26 31 -49 0z"/>
<path d="M93 12863 c-37 -5 -59 -30 -74 -86 -9 -32 -7 -42 7 -58 21 -23 51
-10 60 26 3 14 18 34 31 45 27 21 63 27 63 11 0 -12 37 -24 50 -16 13 8 -14
61 -39 75 -20 10 -36 10 -98 3z"/>
<path d="M1145 12807 c-46 -46 -62 -105 -44 -153 8 -21 19 -39 25 -41 16 -5
34 43 34 91 0 44 30 90 45 67 3 -6 16 -11 29 -11 12 0 31 -7 42 -15 29 -22 35
-18 32 21 -3 34 -5 37 -41 39 -20 1 -45 9 -55 18 -25 23 -29 22 -67 -16z"/>
<path d="M1998 12808 c-17 -6 -28 -17 -28 -29 0 -13 -7 -19 -23 -19 -52 0 -75
-134 -29 -159 22 -12 42 15 42 56 0 16 3 38 6 51 8 29 65 56 104 48 26 -5 30
-2 30 16 0 41 -46 57 -102 36z"/>
<path d="M1433 12689 c-19 -7 -23 -16 -23 -49 0 -22 4 -40 8 -40 14 0 42 35
42 53 0 9 5 17 10 17 14 0 12 17 -2 23 -7 2 -23 1 -35 -4z"/>
<path d="M1516 12682 c-2 -4 -1 -13 3 -20 5 -9 12 -7 26 8 18 19 18 20 -3 20
-11 0 -23 -4 -26 -8z"/>
<path d="M995 12590 c-22 -24 -16 -33 18 -28 23 3 24 5 13 26 l-12 23 -19 -21z"/>
<path d="M1347 12604 c-10 -11 -9 -124 2 -124 6 0 12 4 16 10 4 6 15 6 30 0
21 -8 25 -7 25 9 0 10 -7 24 -15 31 -8 7 -15 18 -15 25 0 19 -34 58 -43 49z"/>
<path d="M891 12586 c-18 -22 -10 -141 9 -141 11 0 14 9 13 30 -6 68 -5 81 2
103 8 25 -6 30 -24 8z"/>
<path d="M404 12449 c-20 -20 -46 -54 -58 -74 -20 -32 -21 -42 -12 -70 14 -39
34 -65 51 -65 16 0 35 44 35 84 0 48 18 58 87 51 46 -6 61 -4 71 8 19 23 -22
65 -85 86 l-52 18 -37 -38z"/>
<path d="M654 12345 c-11 -28 10 -38 55 -25 53 14 49 34 -7 38 -32 2 -44 -1
-48 -13z"/>
<path d="M638 12132 c-16 -2 -28 -7 -28 -12 0 -5 -13 -24 -30 -43 -55 -63 -57
-117 -5 -117 25 0 29 4 67 54 18 24 26 27 57 22 20 -3 43 -1 51 4 12 8 12 13
-2 42 -17 37 -60 56 -110 50z"/>
<path d="M11820 11575 c0 -2 14 -12 31 -21 28 -14 30 -19 25 -47 -4 -18 -18
-53 -31 -79 -28 -54 -30 -65 -14 -118 9 -29 15 -36 30 -33 39 10 65 -120 37
-182 -14 -31 -36 -32 -91 -4 -76 38 -77 40 -77 153 0 56 5 135 10 176 12 90 9
102 -30 117 -27 10 -29 10 -20 -7 11 -21 13 -161 3 -263 -5 -59 -8 -66 -21
-55 -14 11 -15 10 -8 -7 31 -73 34 -99 34 -296 0 -192 1 -208 22 -249 19 -38
24 -41 32 -26 6 11 8 48 4 90 -4 39 -9 138 -12 220 l-6 149 66 -47 c37 -26 74
-46 84 -44 9 2 28 25 41 52 23 46 24 51 12 130 -7 44 -22 96 -33 113 -19 33
-19 33 0 85 11 29 32 79 47 110 38 80 32 88 -60 88 -41 0 -75 -2 -75 -5z"/>
<path d="M12157 11348 c-2 -68 -10 -181 -17 -253 -6 -71 -10 -162 -8 -202 4
-62 9 -76 38 -113 l33 -42 18 33 c10 19 18 44 19 57 0 12 3 22 8 22 4 0 51
-29 106 -65 130 -85 129 -85 152 -33 17 39 19 74 19 341 0 284 -1 299 -20 323
l-20 26 -120 -18 -120 -17 -32 31 c-17 18 -36 32 -41 32 -6 0 -12 -51 -15
-122z m297 46 c11 -28 5 -416 -7 -499 -11 -75 -14 -80 -38 -83 -33 -4 -129 32
-157 58 -20 19 -22 30 -22 142 0 120 0 120 23 114 87 -24 149 -11 155 33 4 23
2 24 -40 17 -23 -4 -65 -10 -91 -13 l-48 -6 6 99 c8 121 9 124 37 124 13 1 37
7 53 15 43 19 121 19 129 -1z"/>
<path d="M12042 9793 c-1 -54 -6 -129 -10 -168 l-7 -70 -47 0 -46 0 41 -45
c22 -25 49 -53 59 -63 10 -10 18 -22 18 -26 0 -21 -176 -78 -205 -67 -11 4
-14 2 -9 -7 16 -26 49 -41 86 -38 21 1 38 0 38 -4 0 -8 -19 -45 -31 -59 -5 -6
-48 -62 -95 -124 -48 -62 -109 -133 -136 -157 -39 -35 -47 -46 -34 -51 66 -25
151 65 313 336 48 80 55 87 113 113 62 29 73 50 29 55 l-24 3 3 203 3 204 -28
32 -28 31 -3 -98z"/>
<path d="M12302 9704 c5 -21 8 -52 5 -70 -4 -24 0 -37 14 -50 17 -16 22 -16
30 -4 18 28 -10 120 -45 149 -13 11 -14 8 -4 -25z"/>
<path d="M11774 9641 c-41 -52 -59 -118 -40 -149 22 -37 58 22 71 119 8 56 -2
66 -31 30z"/>
<path d="M12072 9228 c-31 -145 -37 -208 -23 -251 25 -74 92 -96 233 -77 135
19 236 77 272 158 23 50 17 77 -28 131 l-35 42 6 -71 c8 -95 -10 -136 -80
-178 -87 -52 -233 -78 -300 -53 -50 19 -58 101 -27 299 18 117 7 117 -18 0z"/>
<path d="M12038 8024 c-36 -7 -76 -18 -88 -24 -34 -18 -126 -30 -161 -20 -31
9 -31 9 -13 -11 32 -35 78 -57 147 -70 37 -7 67 -17 67 -22 0 -5 -39 -78 -87
-161 -127 -223 -193 -355 -193 -389 0 -17 5 -45 12 -63 11 -31 14 -33 87 -43
151 -21 168 -21 246 -6 44 8 92 15 107 15 15 0 46 7 68 16 36 14 40 20 40 50
0 51 -22 94 -72 145 -32 31 -43 50 -38 60 4 8 11 55 15 104 7 88 6 89 -11 65
-9 -14 -26 -35 -37 -47 l-19 -22 -28 21 c-20 14 -33 18 -45 11 -14 -8 -10 -17
34 -69 55 -64 121 -183 121 -218 0 -30 -10 -41 -50 -55 -54 -20 -307 -27 -348
-10 l-33 14 60 120 c33 66 80 167 104 225 38 92 87 178 129 231 7 8 37 24 66
35 57 20 88 58 77 93 -9 28 -78 39 -157 25z"/>
<path d="M12346 7713 c21 -23 24 -35 22 -87 -1 -59 16 -115 42 -131 30 -19 80
41 80 97 0 27 -120 148 -147 148 -22 0 -22 0 3 -27z"/>
<path d="M11910 6367 c0 -28 -132 -373 -160 -417 -14 -23 -151 -20 -213 4 -54
20 -69 16 -42 -14 23 -25 63 -37 158 -45 l77 -7 0 -41 c0 -53 12 -71 39 -64
15 4 30 -5 56 -34 19 -21 35 -46 35 -54 0 -24 -87 -112 -131 -132 -43 -20 -50
-40 -16 -45 41 -7 79 11 129 62 28 27 54 50 57 50 10 0 41 -56 41 -72 0 -27
59 -108 79 -108 31 0 30 20 -4 122 -23 71 -35 94 -43 86 -8 -8 -14 -4 -23 15
-10 22 -8 33 18 79 29 52 43 94 60 173 6 28 17 46 40 61 28 18 30 24 18 34
-15 13 -49 8 -128 -17 -27 -8 -51 -12 -54 -9 -4 3 1 41 10 83 42 206 44 240
22 283 -19 36 -25 38 -25 7z m45 -518 c-25 -51 -49 -97 -53 -101 -4 -4 -24 9
-45 29 -35 32 -38 37 -27 61 6 15 19 37 29 49 19 23 134 75 139 63 1 -4 -18
-49 -43 -101z"/>
<path d="M12380 6233 c-14 -2 -47 -11 -74 -19 -27 -8 -67 -14 -88 -14 -51 0
-48 -17 8 -42 35 -15 57 -19 88 -14 23 4 61 10 85 13 l44 6 -33 -59 c-18 -32
-41 -75 -52 -94 -17 -30 -19 -47 -13 -117 l6 -81 -77 -17 c-73 -17 -114 -17
-224 1 l-35 5 30 -25 c17 -14 45 -29 64 -32 34 -7 175 1 223 12 25 6 27 3 34
-31 11 -59 -1 -170 -23 -207 -23 -40 -46 -45 -95 -19 -21 10 -38 17 -38 15 0
-9 49 -81 79 -114 l30 -35 26 30 c61 71 81 152 67 283 -5 56 -5 85 2 91 6 5
40 18 75 30 46 15 67 18 72 10 8 -14 149 31 149 48 0 13 -52 33 -85 33 -12 0
-68 -13 -126 -29 -57 -16 -105 -28 -107 -26 -2 2 -6 30 -9 62 -5 58 -4 61 56
164 34 57 72 116 83 131 12 15 18 31 14 35 -8 9 -121 13 -156 6z"/>
<path d="M10525 1780 c17 -56 25 -70 40 -70 31 0 14 46 -29 80 -18 14 -18 13
-11 -10z"/>
<path d="M13398 1746 c5 -55 -7 -77 -50 -92 l-33 -12 33 -7 c30 -7 33 -11 30
-39 -3 -29 -6 -31 -48 -36 -39 -4 -42 -7 -26 -16 11 -7 32 -8 52 -4 39 9 40 8
18 -25 -22 -33 -13 -54 20 -48 15 3 26 1 26 -5 0 -22 -52 -71 -78 -74 -45 -5
161 -66 263 -77 90 -10 156 -4 178 18 8 8 -25 11 -116 11 -85 0 -150 6 -195
16 -37 10 -69 18 -71 20 -2 2 8 17 23 34 14 17 26 35 26 40 0 5 3 15 6 23 4
11 -2 16 -17 19 -36 5 -33 24 11 56 38 27 40 31 21 37 -25 8 -29 56 -6 75 8 7
15 16 15 21 0 5 -7 9 -15 9 -9 0 -15 9 -15 24 0 22 -34 76 -48 76 -4 0 -6 -20
-4 -44z"/>
<path d="M12276 1755 c3 -13 1 -56 -6 -95 -14 -86 -22 -91 -136 -93 -46 -1
-84 -5 -84 -9 0 -26 104 -35 180 -17 12 3 14 -7 12 -62 -4 -76 12 -149 33
-149 8 0 15 4 15 10 0 44 24 217 32 227 14 18 137 36 153 23 17 -14 35 -5 35
17 0 14 -10 15 -67 9 -38 -4 -83 -9 -100 -12 l-33 -6 0 72 c0 70 -11 110 -31
110 -5 0 -7 -11 -3 -25z"/>
<path d="M13600 1738 c11 -24 20 -57 20 -75 0 -25 -5 -33 -29 -41 -34 -12 -41
-8 -42 27 -2 37 -28 -105 -28 -155 -1 -36 21 -86 32 -74 12 13 17 50 8 50 -7
0 -11 24 -11 61 0 60 0 60 36 75 20 8 38 13 41 11 2 -3 7 -30 10 -60 4 -42 2
-61 -11 -78 -26 -38 -21 -55 11 -34 19 13 28 15 31 6 2 -6 16 -26 30 -42 24
-29 26 -30 39 -13 7 10 13 27 13 38 -1 19 -2 19 -11 4 -5 -10 -14 -18 -18 -18
-16 0 -43 78 -39 116 2 27 -1 38 -9 37 -18 -4 -28 44 -13 62 10 12 10 15 -2
15 -10 0 -24 23 -37 60 -12 32 -26 62 -31 65 -5 3 -1 -14 10 -37z"/>
<path d="M10721 1744 c11 -13 25 -15 71 -10 44 5 58 4 59 -6 3 -38 -3 -308 -8
-336 -7 -43 -27 -50 -64 -23 -25 18 -28 19 -18 4 12 -20 84 -73 99 -73 16 0
20 59 16 250 -2 102 -4 191 -5 198 -1 8 -25 12 -82 12 -74 0 -80 -2 -68 -16z"/>
<path d="M13681 1718 c12 -43 19 -47 19 -11 0 17 -6 33 -14 36 -11 5 -13 0 -5
-25z"/>
<path d="M11548 1678 c-3 -46 -6 -53 -28 -59 -24 -7 -24 -7 -2 -8 32 -1 30
-45 -4 -67 -34 -23 -43 -9 -43 64 0 68 -16 89 -25 33 -4 -26 -12 -41 -24 -44
-15 -4 -15 -5 2 -6 12 -1 16 -6 12 -17 -3 -9 -6 -24 -6 -35 0 -11 -7 -19 -16
-19 -14 0 -14 -2 -3 -16 7 -9 18 -25 24 -36 17 -34 34 -25 49 25 3 9 15 17 26
17 15 0 20 -6 20 -27 0 -40 -13 -55 -57 -70 -36 -12 -35 -12 32 -8 61 4 72 2
93 -17 17 -17 27 -20 39 -12 33 21 54 61 73 139 19 79 19 80 0 99 -14 15 -33
19 -80 19 l-61 0 2 36 c3 49 1 61 -10 61 -6 0 -11 -23 -13 -52z m121 -67 c17
-11 1 -91 -29 -151 -24 -48 -34 -54 -61 -40 -19 10 -20 17 -14 58 4 26 12 53
18 61 9 11 9 15 0 18 -7 3 -13 18 -13 34 0 28 2 29 43 29 23 0 48 -4 56 -9z"/>
<path d="M11078 1505 c-48 -96 -83 -177 -78 -180 11 -7 64 88 129 232 54 120
55 123 43 123 -4 0 -46 -79 -94 -175z"/>
<path d="M12895 1670 c-11 -5 -33 -9 -50 -10 l-30 -1 24 -19 c42 -35 151 -20
151 22 0 14 -8 18 -37 17 -21 0 -47 -4 -58 -9z"/>
<path d="M10687 1654 c-3 -4 0 -13 8 -20 11 -11 19 -12 39 -2 14 6 26 15 26
20 0 9 -64 11 -73 2z"/>
<path d="M10510 1620 c-14 -4 -45 -8 -70 -9 -39 -1 -42 -3 -30 -16 12 -11 24
-12 59 -4 24 5 46 8 48 5 2 -2 0 -30 -6 -62 -17 -89 -14 -209 4 -224 18 -15
17 -16 68 61 47 70 48 85 1 31 -19 -23 -40 -42 -45 -42 -5 0 -9 55 -9 125 0
77 4 125 10 125 6 0 10 5 10 10 0 11 -5 11 -40 0z"/>
<path d="M11315 1537 c8 -76 27 -137 44 -137 19 0 19 16 1 70 -29 91 -32 108
-15 112 10 2 6 7 -11 15 l-26 12 7 -72z"/>
<path d="M11378 1583 c7 -3 16 -2 19 1 4 3 -2 6 -13 5 -11 0 -14 -3 -6 -6z"/>
<path d="M10658 1555 c-19 -36 -18 -106 2 -130 14 -17 31 -16 86 5 20 8 24 14
16 22 -8 8 -6 18 8 36 11 14 20 30 20 37 0 18 -41 33 -77 28 -24 -4 -32 -1
-35 14 -3 15 -7 13 -20 -12z m72 -48 c0 -7 -8 -24 -17 -37 l-17 -24 -7 24 c-3
14 -1 31 4 38 12 16 37 16 37 -1z"/>
<path d="M11901 1526 c-15 -18 -5 -56 14 -56 21 0 30 40 13 57 -13 12 -16 12
-27 -1z"/>
<path d="M12945 1474 c-38 -8 -111 -16 -162 -17 -78 -2 -90 -4 -78 -16 19 -19
105 -16 228 10 58 12 123 19 150 16 47 -4 71 5 41 17 -25 10 -104 5 -179 -10z"/>
<path d="M11874 1376 c-9 -24 4 -48 23 -44 12 2 18 12 18 28 0 29 -32 41 -41
16z"/>
</g>
</svg>
